<?xml version="1.0" encoding="utf-8"?>
<!-- Generator: Adobe Illustrator 23.0.1, SVG Export Plug-In . SVG Version: 6.00 Build 0)  -->
<svg version="1.1" id="Layer_1" xmlns="http://www.w3.org/2000/svg" xmlns:xlink="http://www.w3.org/1999/xlink" x="0px" y="0px"
	 viewBox="0 0 1080 1296" style="enable-background:new 0 0 1080 1296;" xml:space="preserve">
<style type="text/css">
	.st0{fill-rule:evenodd;clip-rule:evenodd;}
</style>
<g>
	<path class="st0" d="M674.71,289.76c-5.8,5.27-15.64,26.7-35.84,77.12c-11.42,28.46-34.26,89.25-39,104l-2.99,8.96l-13.18-0.18
		c-12.47-0.35-13.53,0-17.57,4.57c-5.97,7.03-5.45,15.28,1.93,30.92c7.2,14.93,7.2,15.64,2.64,24.77l-3.51,6.85l-7.2-2.46
		c-10.54-3.86-18.1-3.34-23.54,1.41c-6.15,5.27-7.73,16.87-3.69,26.7c2.81,6.68,2.81,6.85-1.23,10.89
		c-3.86,4.04-4.22,4.04-10.72,1.41c-5.62-2.46-7.73-2.46-12.12-0.7c-6.15,2.64-11.59,13.35-11.77,22.84c0,5.62-0.88,7.03-8.26,11.77
		c-7.73,5.09-8.61,5.27-13,2.81c-2.81-1.41-6.15-2.46-7.55-2.46c-4.92,0-13.18,8.96-15.46,16.34c-2.11,7.55-5.62,11.59-14.05,16.34
		c-4.39,2.28-5.45,2.28-10.19-0.18c-3.16-1.58-7.03-2.28-9.66-1.58c-5.62,1.41-14.23,11.24-15.81,18.1
		c-0.7,3.34-3.16,6.68-7.03,8.96c-5.62,3.51-6.32,3.51-11.42,0.88c-9.49-4.92-20.2,0.35-23.72,11.59
		c-1.58,4.57-11.24,9.49-13.7,7.03c-2.81-2.81-12.12-2.28-16.87,0.88c-2.28,1.58-5.45,5.97-7.2,9.84c-2.81,6.5-4.04,7.2-20.2,12.82
		c-15.64,5.45-18.97,7.38-20.55,11.77c-1.41,3.69-126.49,36.72-168.3,44.45c-46.73,8.61-60.61,15.11-75.54,35.49
		c-4.39,5.8-9.31,11.07-11.07,11.59c-7.91,2.28-14.41,32.15-13.18,60.26c0.88,22.31,6.5,35.66,19.85,47.79
		c10.54,9.49,34.78,21.96,60.43,30.92c15.64,5.45,60.43,17.22,82.75,21.61c8.43,1.76,10.72,1.58-87.84,5.97
		c-39.18,1.76-67.46,4.04-72.73,6.15c-5.09,1.93,0.18,5.45,9.84,6.68c40.23,5.45,92.58,6.68,323.78,7.55
		c324.48,1.23,622.09-2.28,691.83-8.08c16.34-1.41,20.55-2.46,18.27-4.74c-1.76-1.76-24.42-4.04-53.06-5.09
		c-15.46-0.53-29.87-1.41-32.15-1.93c-3.69-0.7-3.86-1.05-1.05-3.69c2.11-2.11,5.45-2.81,12.12-2.46
		c10.01,0.53,14.76-1.23,21.96-7.73c2.46-2.11,7.2-4.39,10.54-5.09c16.34-2.99,35.66-16.51,42.69-29.87
		c5.09-10.01,6.15-33.2,2.28-48.49c-3.34-13.18-17.74-47.26-23.19-55.52l-3.86-5.62l3.69-10.19c5.09-14.58,4.92-50.6-0.35-75.37
		c-7.73-36.19-26-90.12-33.55-99.79c-3.16-4.04-3.34-4.74-0.7-9.84c3.69-7.38,3.69-29.16-0.18-45.5
		c-2.64-11.59-2.64-13.53-0.18-23.72c3.51-13.88,3.51-28.81,0.18-55.16c-3.16-23.54-6.68-37.42-11.77-45.85
		c-4.04-6.68-20.2-14.76-45.33-22.84c-9.14-2.99-45.15-14.58-79.93-25.83c-34.78-11.24-65.88-21.26-68.87-22.14
		c-5.62-1.76-5.8-2.11-5.8-12.3c0-13.7-4.74-23.72-18.27-38.12c-26.35-28.11-68.16-56.04-88.72-59.38
		C681.03,285.01,679.28,285.54,674.71,289.76z M698.07,296.43c22.14,10.01,75.19,56.57,83.1,73.26c4.92,10.01,5.27,21.61,0.88,20.2
		c-10.54-3.16-46.73-14.05-64.3-19.32c-21.61-6.5-30.92-7.55-41.99-4.57c-7.73,2.28-16.34,8.96-19.68,15.64
		c-1.41,2.46-8.26,26.35-15.28,52.88s-13.18,49.01-13.88,49.72c-2.11,2.28-19.32-0.7-19.32-3.34c0-5.09,47.08-135.8,60.43-168.48
		C678.05,288.35,678.93,288,698.07,296.43z M707.74,375.49l13.18,3.86l-0.35,8.26c-0.53,10.19-9.49,55.52-17.22,88.19
		C679.1,577.7,641.68,632.69,560.17,686.62c-39.53,26.18-75.54,43.57-132.11,63.77c-55.16,19.68-107.17,33.55-126.31,33.73
		c-13.35,0-17.39-4.92-24.42-30.04c-3.51-13.18-3.34-14.41,2.64-16.34c2.81-0.88,4.04,0.35,6.85,7.03
		c4.04,10.01,9.49,13.7,17.74,12.47c4.74-0.7,6.15-0.35,6.15,1.58c0,5.62,5.27,13,9.49,13c5.97,0,9.31-4.74,14.93-21.26l4.92-14.76
		l4.04,8.43c4.57,9.49,9.31,13.53,15.99,13.53c11.42,0,14.93-5.62,16.69-26.18c0.7-7.73,1.76-14.23,2.46-14.23
		c0.88,0,3.51,3.51,5.97,7.73c5.97,10.19,12.3,15.11,19.85,15.11c14.05,0,18.1-7.55,18.1-34.26c0-10.19,0.53-18.45,1.41-18.45
		c0.7,0,4.39,4.57,8.26,9.84c8.26,11.59,18.8,21.08,24.6,22.14c5.62,1.23,13.53-2.46,18.1-8.26c4.57-5.62,4.92-15.99,1.93-36.89
		c-1.05-7.38-1.58-13.7-1.05-14.41c0.7-0.53,4.74,2.11,9.14,5.8c23.72,20.2,31.27,23.19,41.99,16.69
		c10.01-6.15,11.07-12.82,5.45-32.33l-4.57-16.16l3.86-2.99c4.92-4.22,6.5-4.04,14.41,1.41c10.54,7.03,24.42,13,30.74,13
		c4.39,0,7.55-1.58,11.95-5.97c7.55-7.55,7.73-13.7,0.53-24.07c-2.81-4.22-7.38-10.72-9.84-14.23l-4.39-6.5l3.86-5.45
		c2.81-3.86,4.74-5.09,6.85-4.22c9.31,3.86,35.14,11.24,39.7,11.24c6.32,0,15.64-5.27,18.45-10.54c2.46-4.57,0.88-13-2.99-16.16
		c-1.58-1.23-7.73-7.91-13.7-14.93l-10.89-12.65l4.57-13.53l4.57-13.35l7.03,1.05c3.86,0.7,12.65,1.58,19.68,2.28
		c12.3,1.05,12.65,0.88,17.92-4.39c6.68-6.68,7.03-12.82,1.05-17.74c-4.74-3.51-18.27-7.2-27.23-7.2c-2.81,0-5.45-0.7-5.97-1.41
		c-0.35-0.7,4.92-24.42,11.95-52.7c13.53-54.99,15.11-58.5,26.35-61.66C685.43,370.57,693.68,371.27,707.74,375.49z M735.85,384.8
		c0.35,0.35-3.86,28.28-9.49,62.02c-11.59,69.39-11.95,77.3-3.69,94.34c7.03,14.23,22.31,28.46,40.76,37.95
		s75.72,35.31,101.02,45.33c53.06,21.26,75.02,26.7,116.48,29.34L1002,655l4.74,12.3c2.64,6.68,4.74,13.53,4.92,14.93
		c0,1.93-5.8,4.22-20.73,8.08c-23.72,6.5-45.5,14.76-73.79,28.11c-34.78,16.34-49.37,28.99-70.8,61.84
		c-12.12,18.62-34.78,61.49-38.3,72.56l-2.11,6.32l-22.84,2.11c-12.65,1.23-23.19,1.93-23.72,1.58
		c-0.35-0.53,10.54-22.49,24.24-49.01c31.27-60.79,35.31-71.33,34.43-90.3c-0.7-16.69-3.86-23.72-15.99-37.07
		c-16.16-17.74-51.12-41.46-108.92-73.61l-27.58-15.46l3.51-5.45c13-19.5,27.58-56.74,36.89-94.16
		c5.09-19.85,16.16-81.87,18.62-102.77c0.53-5.8,1.58-11.24,1.93-11.95C727.24,381.81,733.91,383.04,735.85,384.8z M853.03,424.68
		c1.05,1.05,9.14,15.81,18.1,32.68c8.96,16.87,19.85,36.19,24.24,43.04c10.19,15.28,32.33,37.77,49.54,49.89
		c13,9.14,39,23.01,43.39,23.01c3.16,0,4.92,4.39,8.26,21.08c3.51,17.04,3.34,41.64-0.18,40.93c-1.23-0.35-12.3-1.76-24.6-3.34
		c-31.8-4.04-61.84-14.23-141.07-48.14c-47.26-20.03-64.65-29.34-74.49-39.18c-19.5-19.85-21.43-31.8-13.53-86.43
		c7.03-49.54,7.91-58.85,5.97-58.85c-0.88,0-4.57,20.55-8.26,45.85c-10.19,69.22-8.43,82.22,13.88,103.3
		c13.35,12.65,51.65,30.92,129.13,62.02c48.31,19.32,58.85,22.49,86.08,25.3c13.88,1.41,25.47,2.81,25.47,2.99
		c0,0.18,1.41,2.99,3.16,6.15l2.99,5.97l-13.53-1.23c-36.01-3.16-56.92-8.08-94.52-22.84c-53.41-20.91-128.07-53.76-138.44-60.79
		c-10.54-7.2-22.66-20.03-27.23-28.81c-7.38-14.58-7.2-29.16,1.05-79.93c3.86-23.72,7.55-47.43,8.26-52.7
		c0.53-5.27,1.41-11.77,1.93-14.41l0.88-4.57l55.69,18.45C825.79,414.31,851.8,423.63,853.03,424.68z M924.7,446.29
		c57.8,17.74,62.19,19.68,65.7,31.1c4.39,13.7,9.66,65.53,7.91,78.53c-1.05,7.55-1.58,8.61-5.45,8.61
		c-5.27,0-15.11-4.92-33.03-16.51c-26.7-17.39-50.07-40.58-68.87-68.69c-7.03-10.54-30.39-50.95-30.39-52.53
		c0-0.53,2.11-0.18,4.92,0.88C868.13,428.72,894.84,436.98,924.7,446.29z M626.92,492.67c37.77,5.62,42.16,6.85,42.16,11.95
		c0,8.61-9.66,8.96-50.07,1.93c-16.34-2.81-31.27-5.27-32.85-5.27c-4.04,0-2.81,2.81,8.26,20.2c8.96,13.88,12.65,18.45,33.91,42.87
		c5.97,6.85,10.89,13.7,10.89,15.11s-1.58,4.22-3.51,6.15c-6.68,6.68-17.57,4.39-58.33-11.59c-13.35-5.27-24.6-9.49-25.12-9.49
		c-2.28,0,12.12,25.3,22.66,39.53c6.5,8.61,12.12,17.57,12.82,19.85c1.41,5.97-2.11,12.3-7.55,13.7
		c-6.68,1.76-13.7-1.23-39.18-16.16c-12.12-7.2-22.66-13-23.37-13c-2.64,0-1.41,6.85,5.62,30.04c7.91,26.53,8.43,31.8,3.51,36.72
		c-6.68,6.68-14.41,4.57-29.69-8.61c-15.11-13-25.47-21.26-26.88-21.26c-2.28,0-1.58,13.53,1.58,34.61
		c3.16,21.78,2.46,26.18-5.62,31.45c-8.26,5.45-16.87-0.88-34.78-26.35c-6.15-8.78-9.14-11.42-10.54-10.01
		c-2.64,2.64-4.39,17.22-4.57,36.54c-0.18,13.88-0.7,16.87-3.69,19.85c-7.73,7.73-14.93,2.99-27.23-17.39
		c-4.74-7.91-9.14-13.7-10.01-12.82c-1.58,1.58-4.74,23.19-4.92,33.73c0,9.31-3.16,16.34-7.73,17.22
		c-4.74,1.05-10.19-5.27-16.87-18.97c-3.34-6.68-6.5-12.3-7.2-12.3c-0.53,0-3.16,7.73-5.8,17.04c-7.73,27.76-8.08,28.64-11.59,28.64
		c-4.74,0-4.92-4.39-1.41-25.3c3.51-20.73,10.54-39,15.64-40.58c7.73-2.46,10.72,0.7,18.27,19.68c1.76,4.22,3.69,7.55,4.39,7.55
		s1.93-4.57,2.46-10.19c2.64-21.61,9.14-37.24,15.81-37.24c3.51,0,8.96,7.03,16.87,21.43c4.04,7.55,7.91,14.05,8.61,14.58
		c0.88,0.35,1.93-6.85,2.64-15.99c1.58-23.37,4.04-33.55,9.66-39.88c7.38-8.08,11.59-5.97,25.3,12.3
		c11.59,15.81,19.85,24.6,21.43,23.19c0.35-0.53-0.35-8.26-1.76-17.39c-3.34-21.43-3.34-32.85,0-42.34
		c4.74-13.53,9.84-13.7,23.37-1.05c16.69,15.64,32.68,28.11,33.38,26c0.35-1.05-1.05-6.32-3.16-11.95
		c-4.92-13.35-8.78-32.15-8.78-43.39c0-6.85,0.88-10.19,3.69-13.18c4.74-5.09,9.84-4.04,21.78,4.74
		c10.19,7.38,39.53,24.95,41.64,24.95c0.7,0-4.04-7.2-10.72-16.16c-19.15-25.47-26.53-44.1-21.43-53.93
		c2.99-5.27,8.26-4.74,29.69,3.51c22.14,8.43,49.54,17.39,49.54,16.16c0-0.53-4.57-6.15-10.37-12.65
		c-29.87-33.73-44.62-62.19-37.07-71.5C573.52,484.76,574.92,484.76,626.92,492.67z M616.56,513.4c2.64,0.88,2.64,1.93-0.7,10.19
		c-1.93,5.09-4.04,9.31-4.74,9.31c-1.58,0-14.05-18.27-14.05-20.73C597.06,510.06,610.06,510.94,616.56,513.4z M592.32,549.06
		c4.57,5.8,8.08,10.89,7.73,11.42c-0.88,0.7-20.73-6.5-22.84-8.26c-1.41-1.23,3.34-14.05,5.45-14.05
		C583.36,538.35,587.75,543.09,592.32,549.06z M570.18,577.17c2.64,1.23,5.09,2.28,5.45,2.46c1.23,0.7-3.34,7.73-4.74,7.73
		c-0.88,0-3.16-2.81-5.27-6.15C561.75,574.54,562.63,573.83,570.18,577.17z M543.48,590.87c1.76,5.62-0.53,7.38-5.62,4.04
		c-4.22-2.81-4.22-2.99-1.23-5.27C540.84,586.48,542.25,586.83,543.48,590.87z M551.38,603.17c0,0.88-1.23,1.23-2.64,0.7
		c-1.41-0.7-2.11-1.76-1.58-2.64C548.22,599.31,551.38,600.89,551.38,603.17z M696.32,622.14c60.96,35.14,99.79,64.83,109.1,83.27
		c5.09,10.01,5.62,24.07,1.41,38.47c-2.28,7.91-35.66,75.54-39.18,79.23c-0.53,0.7-22.84,4.04-49.37,7.38
		c-26.53,3.51-77.12,10.19-112.44,14.93c-35.31,4.92-77.12,10.54-93.11,12.47c-15.99,2.11-29.69,4.57-30.74,5.45
		c-0.88,1.05,1.58,1.23,6.15,0.7c56.04-6.68,172.87-21.43,237.52-30.04c20.03-2.81,36.89-4.39,37.42-3.86s-2.64,8.43-7.2,17.74
		l-8.26,16.69l-8.08,1.05c-28.99,3.69-228.56,20.38-244.9,20.38c-5.27,0-8.26-0.88-8.78-2.64c-0.7-1.41-9.31-13.88-19.5-27.76
		c-23.19-31.62-34.61-50.07-45.33-72.73c-4.57-9.84-8.43-18.27-8.43-18.8c0-0.35,6.5-2.99,14.58-5.45
		c97.15-31.97,183.76-87.14,227.68-145.29l7.55-10.01l5.62,2.81C671.02,607.56,683.84,614.77,696.32,622.14z M529.25,625.48
		c-2.46,1.76-3.34,1.76-4.57,0c-2.99-4.57-1.58-6.5,3.16-4.39C532.06,623.02,532.23,623.37,529.25,625.48z M498.68,624.25
		c0,3.51-5.62,10.54-8.61,10.54c-0.88,0-2.46-1.23-3.69-2.64c-1.76-2.11-1.23-3.34,2.99-6.85
		C495.34,619.86,498.68,619.51,498.68,624.25z M502.19,640.24c0,3.51-2.64,4.57-4.39,1.58c-1.58-2.64,0.53-7.55,2.64-6.15
		C501.31,636.2,502.19,638.31,502.19,640.24z M445.97,661.5c-4.74,3.86-6.32,4.04-7.73,0.53c-0.7-1.76,0.88-3.86,4.74-6.15
		c5.09-3.16,5.62-3.34,6.32-0.53C449.66,656.93,448.08,659.74,445.97,661.5z M451.24,668.88c0,2.28,0.53,5.8,1.05,7.55
		c0.7,2.11-0.53,1.58-3.69-1.93c-3.51-3.86-4.04-5.45-2.46-7.38C449.14,663.43,451.24,664.13,451.24,668.88z M399.07,690.48
		c-1.23,8.43-1.23,8.43-4.04,3.16c-1.93-3.51-1.93-4.74,0-7.03C398.71,682.23,400.12,683.63,399.07,690.48z M1022.03,716.31
		c13.18,47.43,16.51,83.62,9.84,106.11c-1.76,6.15-4.04,11.59-5.09,11.95c-8.26,2.81-193.95,22.66-195.88,20.73
		c-1.41-1.41,13.7-30.39,28.11-53.41c23.19-37.42,34.78-49.01,64.47-63.95c15.28-7.73,49.37-21.78,65.88-27.23
		c16.87-5.62,14.58-7.73-2.64-2.46c-31.8,9.66-76.77,30.04-93.11,42.16c-4.57,3.34-12.47,11.24-17.57,17.57
		c-11.07,14.05-33.91,51.65-44.8,73.79c-6.68,13.88-8.61,16.34-12.12,16.34c-2.28,0-4.22-0.35-4.22-0.88
		c0-2.46,22.84-45.85,32.15-61.49c26.18-43.22,39-54.81,84.15-75.19c22.84-10.19,44.27-18.1,67.29-24.95
		c12.3-3.69,14.23-3.86,16.16-1.58C1015.71,695.23,1019.04,705.42,1022.03,716.31z M357.08,704.19c-0.7,1.41-1.76,2.64-2.64,2.64
		c-0.88,0-1.58-1.23-1.58-2.64s1.23-2.64,2.64-2.64C357.08,701.55,357.61,702.61,357.08,704.19z M317.02,725.62
		c-5.09,26.7-4.22,24.6-11.07,26c-4.39,0.7-7.03,0.35-9.31-1.76c-3.16-2.81-8.26-17.74-6.68-19.32c1.05-1.05,24.24-9.31,26.53-9.49
		C317.37,720.88,317.55,722.99,317.02,725.62z M270.29,752.85c5.09,20.03,11.42,31.45,19.5,35.66c4.92,2.64,7.38,2.64,19.5,0.88
		c15.81-2.28,61.66-13.35,82.92-20.03l13.7-4.39l2.11,5.62c3.86,11.07,20.38,42.69,28.99,55.69c4.74,7.2,16.51,23.89,26.18,36.89
		l17.57,23.72l-11.59,1.05c-6.5,0.7-25.12,1.58-41.64,2.28l-29.87,1.23l-7.03-11.07c-3.86-6.15-13.35-17.39-21.08-25.12
		c-28.81-28.81-66.76-41.28-126.84-41.28c-44.1,0-96.98-4.57-123.85-10.72c-15.28-3.51-31.8-12.65-28.46-15.46
		c0.88-0.88,13.53-3.51,27.93-6.32c25.12-4.57,108.22-24.77,132.64-32.33C267.48,744.24,268.18,744.24,270.29,752.85z M88.29,795.72
		c12.3,15.46,47.43,21.78,139.84,25.3c25.65,1.05,51.65,2.64,57.97,3.69c26.18,4.04,47.61,11.95,62.89,23.37
		c10.01,7.2,28.11,25.47,35.66,35.66l5.45,7.55h-23.54c-87.66,0-205.9-15.99-270.55-36.19c-19.68-6.32-47.61-18.8-55.87-25.12
		c-4.04-3.16-4.04-3.69-1.76-8.26c5.27-9.66,17.74-21.61,28.46-26.88c5.97-2.99,11.95-5.45,13.53-5.45
		C81.96,789.39,85.48,792.2,88.29,795.72z M69.67,851.76c47.26,19.85,132.46,35.66,231.37,43.22c32.15,2.28,129.65,2.28,173.05-0.18
		c39.18-2.11,204.84-14.58,246.83-18.45c165.32-15.28,261.24-26.35,301.82-34.78l11.95-2.64l3.51,6.85
		c9.49,18.97,19.15,49.54,19.15,61.49c0,7.03-1.05,9.31-7.03,15.99c-16.51,18.8-59.2,33.03-115.07,38.3
		c-43.92,4.04-115.95,7.03-171.29,7.03c-65.88,0-202.03,2.81-244.9,5.09c-41.99,2.28-55.16-0.35-77.48-15.64
		c-20.73-14.05-33.91-17.04-65-14.05c-11.59,1.05-30.57,4.39-42.16,7.2c-39.88,10.01-65.7,12.3-98.38,8.61
		c-43.74-5.09-57.45-10.89-95.75-40.41c-10.01-7.55-15.11-10.01-41.64-18.45c-28.46-9.31-53.58-20.38-70.45-31.27
		c-7.55-4.92-7.55-4.92-6.32-13.18c0.53-4.57,1.41-8.61,1.76-8.96c0.18-0.35,5.09,2.28,10.72,5.62
		c45.85,27.93,141.07,51.12,246.48,60.08c91.71,7.73,163.03,5.27,427.78-14.93c83.8-6.5,193.78-18.27,253.86-27.23
		c27.76-4.22,66.23-12.12,68.16-14.05c2.81-2.81-2.99-2.46-19.32,0.7c-88.54,17.74-462.39,50.77-612.77,54.11
		c-110.85,2.46-225.05-12.12-308.32-39.35c-20.91-6.68-55.69-22.49-61.66-27.93c-3.51-2.99-3.69-3.86-1.41-8.96l2.46-5.62
		l12.47,7.73C48.93,841.92,61.41,848.25,69.67,851.76z M61.23,894.1c9.14,4.04,27.23,10.72,40.23,14.76
		c20.91,6.68,24.77,8.61,36.01,17.57c14.41,11.42,30.92,22.84,39,26.88c15.99,8.08,57.97,15.28,89.25,15.28
		c20.55,0,40.58-2.99,68.69-10.54c35.14-9.31,66.06-11.42,81.34-5.62c4.57,1.76,13.18,6.5,18.97,10.37
		c27.93,18.97,36.54,20.73,87.31,18.1c20.55-1.05,101.72-2.64,180.42-3.51c140.72-1.58,171.46-2.64,227.51-7.91
		c55.16-5.27,98.73-18.62,121.75-37.07c5.27-4.39,5.62-4.39,5.62-1.05c0,1.93-2.64,7.2-5.62,11.95
		c-7.38,10.89-24.77,20.73-36.54,20.91c-6.85,0-8.08,0.7-10.19,4.74c-3.86,8.26-12.65,10.19-26,5.8c-2.99-0.88-4.57,0-7.03,4.22
		c-5.09,8.78-14.58,9.31-25.83,1.58c-2.81-1.93-3.86-1.41-8.78,4.39c-7.03,8.26-15.99,9.14-21.96,2.11
		c-4.92-5.62-5.62-5.45-12.65,1.05c-4.74,4.74-6.68,5.27-11.77,4.57c-3.51-0.7-7.38-2.64-8.78-4.74c-3.34-4.57-5.97-4.39-11.07,0.88
		c-5.45,5.8-18.1,6.32-21.08,0.88c-2.46-4.74-5.62-4.39-10.54,0.88c-5.45,5.8-17.39,6.32-20.73,0.88c-2.81-4.57-8.43-4.57-11.24,0
		c-3.16,4.92-15.46,4.92-19.85,0c-4.04-4.57-4.74-4.39-11.42,1.05l-5.45,4.74l-27.58-2.11c-67.11-4.92-112.96-5.62-236.64-3.51
		c-67.64,1.05-132.46,1.58-144.23,1.05c-20.55-0.88-21.78-1.23-35.14-8.08c-17.22-8.96-24.07-9.31-37.24-1.76
		c-9.49,5.27-10.19,5.45-24.77,4.22c-99.08-7.55-195.18-33.2-224.87-59.91c-11.24-10.01-18.1-25.3-19.15-42.51l-0.88-12.65
		l12.12,7.38C39.1,883.38,52.1,890.06,61.23,894.1z"/>
	<path class="st0" d="M707.91,329.64c2.64,2.11,14.76,12.12,27.05,22.14c12.3,10.19,23.89,20.73,25.65,23.72
		c2.99,4.92,3.34,5.09,3.34,1.41c0-5.97-24.95-28.99-49.54-45.68C705.1,324.72,701.06,323.84,707.91,329.64z"/>
	<path class="st0" d="M677.87,414.84c-8.96,2.81-11.95,14.76-5.27,21.43c4.57,4.57,14.23,4.57,18.45,0
		C699.48,426.96,689.82,411.15,677.87,414.84z M684.72,424.5c1.41,1.76,1.23,2.99-0.18,4.39c-3.16,3.16-6.68,2.46-6.68-1.05
		C677.87,422.22,681.39,420.46,684.72,424.5z"/>
	<ellipse class="st0" cx="675.24" cy="633.04" rx="2.64" ry="1.76"/>
	<path class="st0" d="M662.94,641.82c-0.53,0.88,0.18,1.76,1.76,1.76s2.28-0.88,1.76-1.76c-0.53-1.05-1.41-1.76-1.76-1.76
		S663.47,640.77,662.94,641.82z"/>
	<path class="st0" d="M694.56,650.6c-0.53,0.88-0.18,1.76,0.7,1.76c1.05,0,1.93-0.88,1.93-1.76c0-1.05-0.35-1.76-0.7-1.76
		C695.97,648.85,695.09,649.55,694.56,650.6z"/>
	<path class="st0" d="M652.4,652.36c0.7,1.05,1.93,1.41,2.81,0.88c2.46-1.58,1.93-2.64-1.23-2.64
		C652.57,650.6,651.87,651.48,652.4,652.36z"/>
	<path class="st0" d="M682.26,661.15c0.7,1.05,1.93,1.41,2.81,0.88c2.46-1.58,1.93-2.64-1.23-2.64
		C682.44,659.39,681.74,660.27,682.26,661.15z"/>
	<circle class="st0" cx="642.74" cy="662.9" r="1.76"/>
	<path class="st0" d="M710.9,667.65c1.23,0.53,2.81,0.35,3.34-0.18c0.7-0.53-0.35-1.05-2.28-0.88
		C710.02,666.59,709.49,667.12,710.9,667.65z"/>
	<path class="st0" d="M669.97,669.93c-0.53,0.88,0.18,1.76,1.76,1.76s2.28-0.88,1.76-1.76c-0.53-1.05-1.41-1.76-1.76-1.76
		C671.37,668.17,670.49,668.88,669.97,669.93z"/>
	<circle class="st0" cx="630.44" cy="671.69" r="1.76"/>
	<path class="st0" d="M698.95,676.96c0,0.88,0.88,1.76,1.93,1.76c0.88,0,1.23-0.88,0.7-1.76c-0.53-1.05-1.41-1.76-1.93-1.76
		C699.3,675.2,698.95,675.9,698.95,676.96z"/>
	<path class="st0" d="M657.67,680.47c-0.53,0.88,0.18,1.76,1.76,1.76c1.58,0,2.28-0.88,1.76-1.76c-0.53-1.05-1.41-1.76-1.76-1.76
		C659.07,678.71,658.2,679.42,657.67,680.47z"/>
	<path class="st0" d="M615.5,682.23c-0.53,0.88-0.35,1.76,0.7,1.76c0.88,0,2.28-0.88,2.81-1.76c0.53-1.05,0.35-1.76-0.7-1.76
		C617.44,680.47,616.03,681.17,615.5,682.23z"/>
	<circle class="st0" cx="728.82" cy="685.74" r="1.76"/>
	<path class="st0" d="M686.66,687.67c0,0.88,0.88,1.23,1.76,0.7c1.05-0.53,1.76-1.41,1.76-1.93c0-0.35-0.7-0.7-1.76-0.7
		C687.53,685.74,686.66,686.62,686.66,687.67z"/>
	<path class="st0" d="M644.14,690.48c1.23,0.53,2.81,0.35,3.34-0.18c0.7-0.53-0.35-1.05-2.28-0.88
		C643.26,689.43,642.74,689.96,644.14,690.48z"/>
	<circle class="st0" cx="604.09" cy="692.77" r="1.76"/>
	<circle class="st0" cx="714.76" cy="694.53" r="1.76"/>
	<path class="st0" d="M672.6,698.21c0,0.88,0.88,1.23,1.76,0.7c1.05-0.53,1.76-1.41,1.76-1.93c0-0.35-0.7-0.7-1.76-0.7
		C673.48,696.28,672.6,697.16,672.6,698.21z"/>
	<path class="st0" d="M631.32,699.8c0.53,0.88,1.41,1.76,1.93,1.76c0.35,0,0.7-0.88,0.7-1.76c0-1.05-0.88-1.76-1.93-1.76
		C631.14,698.04,630.79,698.74,631.32,699.8z"/>
	<path class="st0" d="M742.87,701.55c0,0.88,0.88,1.76,1.93,1.76c0.88,0,1.23-0.88,0.7-1.76c-0.53-1.05-1.41-1.76-1.93-1.76
		C743.22,699.8,742.87,700.5,742.87,701.55z"/>
	<circle class="st0" cx="590.03" cy="703.31" r="1.76"/>
	<circle class="st0" cx="702.47" cy="705.07" r="1.76"/>
	<path class="st0" d="M659.43,706.82c-0.53,0.88,0.18,1.76,1.76,1.76s2.28-0.88,1.76-1.76c-0.53-1.05-1.41-1.76-1.76-1.76
		S659.95,705.77,659.43,706.82z"/>
	<path class="st0" d="M617.26,708.58c-0.53,0.88-0.18,1.76,0.7,1.76c1.05,0,1.93-0.88,1.93-1.76c0-1.05-0.35-1.76-0.7-1.76
		C618.67,706.82,617.79,707.53,617.26,708.58z"/>
	<circle class="st0" cx="730.58" cy="710.34" r="1.76"/>
	<path class="st0" d="M573.34,713.85c0.7,1.05,1.93,1.41,2.81,0.88c2.46-1.58,1.93-2.64-1.23-2.64
		C573.52,712.09,572.81,712.97,573.34,713.85z"/>
	<path class="st0" d="M687.53,713.85c-0.53,0.88-0.18,1.76,0.7,1.76c1.05,0,1.93-0.88,1.93-1.76c0-1.05-0.35-1.76-0.7-1.76
		C688.94,712.09,688.06,712.8,687.53,713.85z"/>
	<path class="st0" d="M646.25,717.36c0,0.88,0.88,1.76,1.93,1.76c0.88,0,1.23-0.88,0.7-1.76c-0.53-1.05-1.41-1.76-1.93-1.76
		C646.6,715.61,646.25,716.31,646.25,717.36z"/>
	<path class="st0" d="M603.21,719.12c0.53,0.88,1.41,1.76,1.93,1.76c0.35,0,0.7-0.88,0.7-1.76c0-1.05-0.88-1.76-1.93-1.76
		C603.03,717.36,602.68,718.07,603.21,719.12z"/>
	<path class="st0" d="M756.05,719.12c-0.53,0.88-0.18,1.76,0.7,1.76c1.05,0,1.93-0.88,1.93-1.76c0-1.05-0.35-1.76-0.7-1.76
		C757.45,717.36,756.58,718.07,756.05,719.12z"/>
	<path class="st0" d="M715.64,720.88c0.7,1.05,1.93,1.41,2.81,0.88c2.46-1.58,1.93-2.64-1.23-2.64
		C715.82,719.12,715.12,720,715.64,720.88z"/>
	<path class="st0" d="M557.53,722.63c0.7,1.05,1.93,1.41,2.81,0.88c2.46-1.58,1.93-2.64-1.23-2.64
		C557.71,720.88,557,721.76,557.53,722.63z"/>
	<path class="st0" d="M674.36,724.57c0,0.88,0.88,1.23,1.76,0.7c1.05-0.53,1.76-1.41,1.76-1.93c0-0.35-0.7-0.7-1.76-0.7
		C675.24,722.63,674.36,723.51,674.36,724.57z"/>
	<path class="st0" d="M631.32,726.15c0.53,0.88,1.93,1.76,2.81,1.76c1.05,0,1.23-0.88,0.7-1.76c-0.53-1.05-1.93-1.76-2.81-1.76
		C630.96,724.39,630.79,725.09,631.32,726.15z"/>
	<circle class="st0" cx="590.03" cy="727.9" r="1.76"/>
	<circle class="st0" cx="742.87" cy="727.9" r="1.76"/>
	<path class="st0" d="M701.59,729.66c-0.53,0.88,0.18,1.76,1.76,1.76c1.58,0,2.28-0.88,1.76-1.76c-0.53-1.05-1.41-1.76-1.76-1.76
		C702.99,727.9,702.12,728.61,701.59,729.66z"/>
	<path class="st0" d="M541.72,731.42c-0.53,0.88-0.18,1.76,0.7,1.76c1.05,0,1.93-0.88,1.93-1.76c0-1.05-0.35-1.76-0.7-1.76
		C543.12,729.66,542.25,730.36,541.72,731.42z"/>
	<path class="st0" d="M660.3,733.17c0,0.88,0.88,1.76,1.93,1.76c0.88,0,1.23-0.88,0.7-1.76c-0.53-1.05-1.41-1.76-1.93-1.76
		C660.65,731.42,660.3,732.12,660.3,733.17z"/>
	<path class="st0" d="M617.26,734.93c-0.53,0.88-0.18,1.76,0.7,1.76c1.05,0,1.93-0.88,1.93-1.76c0-1.05-0.35-1.76-0.7-1.76
		C618.67,733.17,617.79,733.88,617.26,734.93z"/>
	<path class="st0" d="M524.15,740.2c-0.53,0.88,0.18,1.76,1.76,1.76c1.58,0,2.28-0.88,1.76-1.76c-0.53-1.05-1.41-1.76-1.76-1.76
		C525.56,738.45,524.68,739.15,524.15,740.2z"/>
	<path class="st0" d="M688.41,740.2c0,0.88,0.88,1.76,1.93,1.76c0.88,0,1.23-0.88,0.7-1.76c-0.53-1.05-1.41-1.76-1.93-1.76
		C688.76,738.45,688.41,739.15,688.41,740.2z"/>
	<path class="st0" d="M603.21,743.72c-0.53,0.88,0.18,1.76,1.76,1.76s2.28-0.88,1.76-1.76c-0.53-1.05-1.41-1.76-1.76-1.76
		C604.61,741.96,603.73,742.66,603.21,743.72z"/>
	<path class="st0" d="M646.25,743.89c0,0.88,0.88,1.23,1.76,0.7c1.05-0.53,1.76-1.41,1.76-1.93c0-0.35-0.7-0.7-1.76-0.7
		C647.13,741.96,646.25,742.84,646.25,743.89z"/>
	<path class="st0" d="M715.64,747.23c-0.53,0.88-0.18,1.76,0.7,1.76c1.05,0,1.93-0.88,1.93-1.76c0-1.05-0.35-1.76-0.7-1.76
		C717.05,745.47,716.17,746.18,715.64,747.23z"/>
	<path class="st0" d="M506.58,748.99c-0.53,0.88-0.18,1.76,0.7,1.76c1.05,0,1.93-0.88,1.93-1.76c0-1.05-0.35-1.76-0.7-1.76
		C507.99,747.23,507.11,747.93,506.58,748.99z"/>
	<path class="st0" d="M674.36,750.74c0,0.88,0.88,1.76,1.93,1.76c0.88,0,1.23-0.88,0.7-1.76c-0.53-1.05-1.41-1.76-1.93-1.76
		C674.71,748.99,674.36,749.69,674.36,750.74z"/>
	<path class="st0" d="M546.99,752.5c0.53,0.88,1.41,1.76,1.93,1.76c0.35,0,0.7-0.88,0.7-1.76c0-1.05-0.88-1.76-1.93-1.76
		C546.81,750.74,546.46,751.45,546.99,752.5z"/>
	<circle class="st0" cx="632.19" cy="752.5" r="1.76"/>
	<path class="st0" d="M782.4,754.26c-0.53,0.88-0.18,1.76,0.7,1.76c1.05,0,1.93-0.88,1.93-1.76c0-1.05-0.35-1.76-0.7-1.76
		C783.81,752.5,782.93,753.2,782.4,754.26z"/>
	<path class="st0" d="M489.89,757.95c0,0.88,0.88,1.23,1.76,0.7c1.05-0.53,1.76-1.41,1.76-1.93c0-0.35-0.7-0.7-1.76-0.7
		C490.77,756.01,489.89,756.89,489.89,757.95z"/>
	<path class="st0" d="M701.59,759.53c0.53,0.88,1.41,1.76,1.93,1.76c0.35,0,0.7-0.88,0.7-1.76c0-1.05-0.88-1.76-1.93-1.76
		C701.41,757.77,701.06,758.47,701.59,759.53z"/>
	<path class="st0" d="M617.26,761.28c-0.53,0.88-0.18,1.76,0.7,1.76c1.05,0,1.93-0.88,1.93-1.76c0-1.05-0.35-1.76-0.7-1.76
		C618.67,759.53,617.79,760.23,617.26,761.28z"/>
	<circle class="st0" cx="660.3" cy="761.28" r="1.76"/>
	<path class="st0" d="M770.1,763.04c-0.53,0.88,0.18,1.76,1.76,1.76c1.58,0,2.28-0.88,1.76-1.76c-0.53-1.05-1.41-1.76-1.76-1.76
		C771.51,761.28,770.63,761.99,770.1,763.04z"/>
	<path class="st0" d="M474.96,764.8c0.53,0.88,1.41,1.76,1.93,1.76c0.35,0,0.7-0.88,0.7-1.76c0-1.05-0.88-1.76-1.93-1.76
		C474.78,763.04,474.43,763.74,474.96,764.8z"/>
	<circle class="st0" cx="560.17" cy="770.07" r="1.76"/>
	<circle class="st0" cx="604.09" cy="770.07" r="1.76"/>
	<circle class="st0" cx="646.25" cy="770.07" r="1.76"/>
	<path class="st0" d="M458.27,772c0,0.88,0.88,1.23,1.76,0.7c1.05-0.53,1.76-1.41,1.76-1.93c0-0.35-0.7-0.7-1.76-0.7
		C459.15,770.07,458.27,770.95,458.27,772z"/>
	<circle class="st0" cx="758.68" cy="773.58" r="1.76"/>
	<path class="st0" d="M500.43,775.34c0,0.88,0.88,1.76,1.93,1.76c0.88,0,1.23-0.88,0.7-1.76c-0.53-1.05-1.41-1.76-1.93-1.76
		C500.79,773.58,500.43,774.28,500.43,775.34z"/>
	<path class="st0" d="M715.64,775.34c-0.53,0.88-0.18,1.76,0.7,1.76c1.05,0,1.93-0.88,1.93-1.76c0-1.05-0.35-1.76-0.7-1.76
		C717.05,773.58,716.17,774.28,715.64,775.34z"/>
	<circle class="st0" cx="445.97" cy="777.1" r="1.76"/>
	<circle class="st0" cx="544.35" cy="778.85" r="1.76"/>
	<path class="st0" d="M587.4,778.85c-0.53,0.88-0.18,1.76,0.7,1.76c1.05,0,1.93-0.88,1.93-1.76c0-1.05-0.35-1.76-0.7-1.76
		C588.8,777.1,587.92,777.8,587.4,778.85z"/>
	<path class="st0" d="M673.48,778.85c-0.53,0.88-0.18,1.76,0.7,1.76c1.05,0,1.93-0.88,1.93-1.76c0-1.05-0.35-1.76-0.7-1.76
		C674.88,777.1,674.01,777.8,673.48,778.85z"/>
	<path class="st0" d="M630.44,780.78c0,0.88,0.88,1.23,1.76,0.7c1.05-0.53,1.76-1.41,1.76-1.93c0-0.35-0.7-0.7-1.76-0.7
		C631.32,778.85,630.44,779.73,630.44,780.78z"/>
	<path class="st0" d="M744.63,782.37c0,0.88,0.88,1.76,1.93,1.76c0.88,0,1.23-0.88,0.7-1.76c-0.53-1.05-1.41-1.76-1.93-1.76
		C744.98,780.61,744.63,781.31,744.63,782.37z"/>
	<path class="st0" d="M485.5,784.12c0.53,0.88,1.41,1.76,1.93,1.76c0.35,0,0.7-0.88,0.7-1.76c0-1.05-0.88-1.76-1.93-1.76
		C485.33,782.37,484.97,783.07,485.5,784.12z"/>
	<path class="st0" d="M701.59,785.88c-0.53,0.88-0.18,1.76,0.7,1.76c1.05,0,1.93-0.88,1.93-1.76c0-1.05-0.35-1.76-0.7-1.76
		C702.99,784.12,702.12,784.83,701.59,785.88z"/>
	<path class="st0" d="M528.54,787.81c0,0.88,0.88,1.23,1.76,0.7c1.05-0.53,1.76-1.41,1.76-1.93c0-0.35-0.7-0.7-1.76-0.7
		C529.42,785.88,528.54,786.76,528.54,787.81z"/>
	<path class="st0" d="M571.58,787.64c-0.53,0.88,0.18,1.76,1.76,1.76c1.58,0,2.28-0.88,1.76-1.76c-0.53-1.05-1.41-1.76-1.76-1.76
		C572.99,785.88,572.11,786.58,571.58,787.64z"/>
	<circle class="st0" cx="470.57" cy="789.39" r="1.76"/>
	<circle class="st0" cx="732.33" cy="792.91" r="1.76"/>
	<circle class="st0" cx="514.49" cy="794.66" r="1.76"/>
	<path class="st0" d="M455.64,796.42c0.7,1.05,1.93,1.41,2.81,0.88c2.46-1.58,1.93-2.64-1.23-2.64
		C455.81,794.66,455.11,795.54,455.64,796.42z"/>
	<path class="st0" d="M556.65,796.42c0,0.88,0.88,1.76,1.93,1.76c0.88,0,1.23-0.88,0.7-1.76c-0.53-1.05-1.41-1.76-1.93-1.76
		C557,794.66,556.65,795.37,556.65,796.42z"/>
	<path class="st0" d="M599.69,796.42c-0.53,0.88,0.18,1.76,1.76,1.76s2.28-0.88,1.76-1.76c-0.53-1.05-1.41-1.76-1.76-1.76
		C601.1,794.66,600.22,795.37,599.69,796.42z"/>
	<path class="st0" d="M645.37,798.18c0.53,0.88,1.41,1.76,1.93,1.76c0.35,0,0.7-0.88,0.7-1.76c0-1.05-0.88-1.76-1.93-1.76
		C645.19,796.42,644.84,797.12,645.37,798.18z"/>
	<path class="st0" d="M498.68,799.93c0,0.88,0.88,1.76,1.93,1.76c0.88,0,1.23-0.88,0.7-1.76c-0.53-1.05-1.41-1.76-1.93-1.76
		C499.03,798.18,498.68,798.88,498.68,799.93z"/>
	<circle class="st0" cx="542.6" cy="803.45" r="1.76"/>
	<circle class="st0" cx="586.52" cy="805.2" r="1.76"/>
	<circle class="st0" cx="674.36" cy="805.2" r="1.76"/>
	<path class="st0" d="M483.74,806.96c-0.53,0.88-0.18,1.76,0.7,1.76c1.05,0,1.93-0.88,1.93-1.76c0-1.05-0.35-1.76-0.7-1.76
		C485.15,805.2,484.27,805.91,483.74,806.96z"/>
	<circle class="st0" cx="630.44" cy="806.96" r="1.76"/>
	<circle class="st0" cx="470.57" cy="813.99" r="1.76"/>
	<path class="st0" d="M568.95,813.99c0,0.88,0.88,1.76,1.93,1.76c0.88,0,1.23-0.88,0.7-1.76c-0.53-1.05-1.41-1.76-1.93-1.76
		C569.3,812.23,568.95,812.93,568.95,813.99z"/>
	<path class="st0" d="M658.55,813.99c0,0.88,0.88,1.76,1.93,1.76c0.88,0,1.23-0.88,0.7-1.76c-0.53-1.05-1.41-1.76-1.93-1.76
		C658.9,812.23,658.55,812.93,658.55,813.99z"/>
	<path class="st0" d="M612.87,815.92c0,0.88,0.88,1.23,1.76,0.7c1.05-0.53,1.76-1.41,1.76-1.93c0-0.35-0.7-0.7-1.76-0.7
		C613.75,813.99,612.87,814.87,612.87,815.92z"/>
	<path class="st0" d="M510.1,819.26c0.7,1.05,1.93,1.41,2.81,0.88c2.46-1.58,1.93-2.64-1.23-2.64
		C510.27,817.5,509.57,818.38,510.1,819.26z"/>
	<circle class="st0" cx="495.16" cy="824.53" r="1.76"/>
	<path class="st0" d="M537.33,829.97c0,0.88,0.88,1.23,1.76,0.7c1.05-0.53,1.76-1.41,1.76-1.93c0-0.35-0.7-0.7-1.76-0.7
		C538.21,828.04,537.33,828.92,537.33,829.97z"/>
	<path class="st0" d="M581.25,831.56c0,0.88,0.88,1.76,1.93,1.76c0.88,0,1.23-0.88,0.7-1.76c-0.53-1.05-1.41-1.76-1.93-1.76
		C581.6,829.8,581.25,830.5,581.25,831.56z"/>
	<circle class="st0" cx="523.27" cy="836.83" r="1.76"/>
	<path class="st0" d="M226.37,773.58c0,0.88,0.88,1.76,1.93,1.76c0.88,0,1.23-0.88,0.7-1.76c-0.53-1.05-1.41-1.76-1.93-1.76
		C226.72,771.82,226.37,772.53,226.37,773.58z"/>
	<path class="st0" d="M207.05,778.85c0,0.88,0.88,1.76,1.93,1.76c0.88,0,1.23-0.88,0.7-1.76c-0.53-1.05-1.41-1.76-1.93-1.76
		C207.4,777.1,207.05,777.8,207.05,778.85z"/>
	<path class="st0" d="M186.84,782.37c-0.53,0.88-0.18,1.76,0.7,1.76c1.05,0,1.93-0.88,1.93-1.76c0-1.05-0.35-1.76-0.7-1.76
		C188.25,780.61,187.37,781.31,186.84,782.37z"/>
	<circle class="st0" cx="252.72" cy="784.12" r="1.76"/>
	<circle class="st0" cx="233.4" cy="789.39" r="1.76"/>
	<circle class="st0" cx="149.07" cy="791.15" r="1.76"/>
	<path class="st0" d="M125.88,792.38c1.23,0.53,2.81,0.35,3.34-0.18c0.7-0.53-0.35-1.05-2.28-0.88
		C125,791.33,124.48,791.85,125.88,792.38z"/>
	<path class="st0" d="M191.24,800.11c0,0.88,0.88,1.23,1.76,0.7c1.05-0.53,1.76-1.41,1.76-1.93c0-0.35-0.7-0.7-1.76-0.7
		C192.11,798.18,191.24,799.06,191.24,800.11z"/>
	<path class="st0" d="M236.91,804.5c0,1.41,0.88,2.11,1.76,1.58c1.05-0.53,1.76-1.76,1.76-2.81c0-0.88-0.7-1.58-1.76-1.58
		C237.79,801.69,236.91,802.92,236.91,804.5z"/>
</g>
</svg>
